<?xml version="1.0" standalone="no"?>
<!DOCTYPE svg PUBLIC "-//W3C//DTD SVG 20010904//EN"
 "http://www.w3.org/TR/2001/REC-SVG-20010904/DTD/svg10.dtd">
<svg version="1.0" xmlns="http://www.w3.org/2000/svg"
 width="512.000000pt" height="512.000000pt" viewBox="0 0 512.000000 512.000000"
 preserveAspectRatio="xMidYMid meet">
<metadata>
Created by potrace 1.14, written by Peter Selinger 2001-2017
</metadata>
<g transform="translate(0.000000,512.000000) scale(0.100000,-0.100000)"
fill="#000000" stroke="none">
<path d="M0 2560 l0 -2560 2560 0 2560 0 0 2560 0 2560 -2560 0 -2560 0 0
-2560z m1959 1590 c270 -55 416 -202 472 -475 25 -121 27 -520 3 -645 -37
-196 -117 -324 -256 -413 -36 -23 -35 -32 4 -48 58 -24 152 -127 192 -212 69
-142 76 -205 85 -697 7 -354 11 -446 25 -493 9 -32 16 -62 16 -68 0 -6 -91 -8
-242 -7 l-242 3 -8 30 c-25 89 -38 285 -38 596 0 265 -3 340 -16 399 -22 94
-60 146 -139 185 -57 29 -66 30 -190 30 l-130 0 -5 -620 -5 -620 -234 -3
c-181 -2 -236 1 -243 10 -9 15 -11 3028 -2 3052 5 14 53 16 431 16 385 0 434
-2 522 -20z m2223 2 c8 -29 10 -366 3 -395 l-7 -27 -414 0 -414 0 2 -426 3
-426 315 1 c173 1 321 -3 328 -7 9 -7 12 -58 10 -223 l-3 -214 -328 -3 -327
-2 2 -448 3 -447 411 -3 412 -2 6 -23 c8 -29 8 -365 0 -395 l-6 -22 -657 2
-656 3 -3 1525 c-1 839 0 1531 3 1538 3 9 144 12 659 12 620 0 654 -1 658 -18z"/>
<path d="M1495 3719 c-3 -8 -4 -221 -3 -474 l3 -460 90 -3 c145 -5 245 19 303
72 64 58 81 143 82 408 0 263 -13 331 -79 401 -50 54 -74 61 -238 65 -122 3
-154 1 -158 -9z"/>
</g>
</svg>
